<?xml version="1.0" encoding="UTF-8" standalone="no"?>
<!DOCTYPE svg PUBLIC "-//W3C//DTD SVG 1.1//EN"
 "http://www.w3.org/Graphics/SVG/1.1/DTD/svg11.dtd">
<!-- Generated by graphviz version 6.0.1 (20220911.1526)
 -->
<!-- Title: G Pages: 1 -->
<svg width="270pt" height="274pt"
 viewBox="0.00 0.00 270.00 274.00" xmlns="http://www.w3.org/2000/svg" xmlns:xlink="http://www.w3.org/1999/xlink">
<g id="graph0" class="graph" transform="scale(1 1) rotate(0) translate(4 270)">
<title>G</title>
<polygon fill="white" stroke="none" points="-4,4 -4,-270 266,-270 266,4 -4,4"/>
<!-- animals -->
<g id="node1" class="node">
<title>animals</title>
<polygon fill="none" stroke="black" stroke-width="1.5" points="61,-132.5 61,-265.5 192,-265.5 192,-132.5 61,-132.5"/>
<text text-anchor="middle" x="126.5" y="-253.5" font-family="Monospace" font-size="10.00">*animals*</text>
<polyline fill="none" stroke="black" stroke-width="1.5" points="61,-246.5 192,-246.5"/>
<text text-anchor="middle" x="126.5" y="-234.5" font-family="Monospace" font-size="10.00">guineveresaenger</text>
<polyline fill="none" stroke="black" stroke-width="1.5" points="61,-227.5 192,-227.5"/>
<text text-anchor="middle" x="126.5" y="-215.5" font-family="Monospace" font-size="10.00">joeduffy</text>
<polyline fill="none" stroke="black" stroke-width="1.5" points="61,-208.5 192,-208.5"/>
<text text-anchor="middle" x="126.5" y="-196.5" font-family="Monospace" font-size="10.00">kimberleyamackenzie</text>
<polyline fill="none" stroke="black" stroke-width="1.5" points="61,-189.5 192,-189.5"/>
<text text-anchor="middle" x="126.5" y="-177.5" font-family="Monospace" font-size="10.00">roothorp</text>
<polyline fill="none" stroke="black" stroke-width="1.5" points="61,-170.5 192,-170.5"/>
<text text-anchor="middle" x="126.5" y="-158.5" font-family="Monospace" font-size="10.00">susanev</text>
<polyline fill="none" stroke="black" stroke-width="1.5" points="61,-151.5 192,-151.5"/>
<text text-anchor="middle" x="126.5" y="-139.5" font-family="Monospace" font-size="10.00">thomas11</text>
</g>
<!-- platypuses -->
<g id="node2" class="node">
<title>platypuses</title>
<polygon fill="none" stroke="black" stroke-width="1.5" points="0,-0.5 0,-95.5 113,-95.5 113,-0.5 0,-0.5"/>
<text text-anchor="middle" x="56.5" y="-83.5" font-family="Monospace" font-size="10.00">*platypuses*</text>
<polyline fill="none" stroke="black" stroke-width="1.5" points="0,-76.5 113,-76.5"/>
<text text-anchor="middle" x="56.5" y="-64.5" font-family="Monospace" font-size="10.00">joeduffy</text>
<polyline fill="none" stroke="black" stroke-width="1.5" points="0,-57.5 113,-57.5"/>
<text text-anchor="middle" x="56.5" y="-45.5" font-family="Monospace" font-size="10.00">guineveresaenger</text>
<polyline fill="none" stroke="black" stroke-width="1.5" points="0,-38.5 113,-38.5"/>
<text text-anchor="middle" x="56.5" y="-26.5" font-family="Monospace" font-size="10.00">susanev</text>
<polyline fill="none" stroke="black" stroke-width="1.5" points="0,-19.5 113,-19.5"/>
<text text-anchor="middle" x="56.5" y="-7.5" font-family="Monospace" font-size="10.00">thomas11</text>
</g>
<!-- animals&#45;&gt;platypuses -->
<g id="edge1" class="edge">
<title>animals&#45;&gt;platypuses</title>
<path fill="none" stroke="black" stroke-width="1.5" d="M95.59,-132.21C91.3,-123.07 86.92,-113.75 82.72,-104.82"/>
<polygon fill="black" stroke="black" stroke-width="1.5" points="85.84,-103.23 78.42,-95.67 79.51,-106.2 85.84,-103.23"/>
</g>
<!-- unicorns -->
<g id="node3" class="node">
<title>unicorns</title>
<polygon fill="none" stroke="black" stroke-width="1.5" points="131,-0.5 131,-95.5 262,-95.5 262,-0.5 131,-0.5"/>
<text text-anchor="middle" x="196.5" y="-83.5" font-family="Monospace" font-size="10.00">*unicorns*</text>
<polyline fill="none" stroke="black" stroke-width="1.5" points="131,-76.5 262,-76.5"/>
<text text-anchor="middle" x="196.5" y="-64.5" font-family="Monospace" font-size="10.00">susanev</text>
<polyline fill="none" stroke="black" stroke-width="1.5" points="131,-57.5 262,-57.5"/>
<text text-anchor="middle" x="196.5" y="-45.5" font-family="Monospace" font-size="10.00">thomas11</text>
<polyline fill="none" stroke="black" stroke-width="1.5" points="131,-38.5 262,-38.5"/>
<text text-anchor="middle" x="196.5" y="-26.5" font-family="Monospace" font-size="10.00">kimberleyamackenzie</text>
<polyline fill="none" stroke="black" stroke-width="1.5" points="131,-19.5 262,-19.5"/>
<text text-anchor="middle" x="196.5" y="-7.5" font-family="Monospace" font-size="10.00">roothorp</text>
</g>
<!-- animals&#45;&gt;unicorns -->
<g id="edge2" class="edge">
<title>animals&#45;&gt;unicorns</title>
<path fill="none" stroke="black" stroke-width="1.5" d="M157.41,-132.21C161.7,-123.07 166.08,-113.75 170.28,-104.82"/>
<polygon fill="black" stroke="black" stroke-width="1.5" points="173.49,-106.2 174.58,-95.67 167.16,-103.23 173.49,-106.2"/>
</g>
</g>
</svg>
